<?xml version="1.0" encoding="UTF-8"?>
<svg id="uuid-1e8dde43-7c51-48d3-83e5-66ed4f921f39" data-name="Layer 1" xmlns="http://www.w3.org/2000/svg" viewBox="0 0 155.4 135.14">
  <defs>
    <style>
      .uuid-8f87e4f4-877e-4480-85da-7115ef486f5b {
        fill: none;
      }

      .uuid-01c0c19a-bf62-4eec-b9e0-40ae96196a6a {
        fill: #fff;
      }
    </style>
  </defs>
  <path class="uuid-8f87e4f4-877e-4480-85da-7115ef486f5b" d="M46.98,80.57c-9.77,0-17.72,7.95-17.72,17.72s7.95,17.72,17.72,17.72,17.72-7.95,17.72-17.72-7.95-17.72-17.72-17.72ZM46.98,108.92c-5.86,0-10.63-4.77-10.63-10.63s4.77-10.63,10.63-10.63,10.63,4.77,10.63,10.63-4.77,10.63-10.63,10.63Z"/>
  <path class="uuid-8f87e4f4-877e-4480-85da-7115ef486f5b" d="M94.37,101.34c-1.32,4.38-5.38,7.58-10.18,7.58-5.86,0-10.63-4.77-10.63-10.63v-21.26c0-1.96-1.59-3.54-3.54-3.54s-3.54,1.59-3.54,3.54v21.26c0,9.77,7.95,17.72,17.72,17.72,5.53,0,10.47-2.55,13.72-6.53-1.79-2.34-3.04-5.11-3.54-8.14Z"/>
  <path class="uuid-8f87e4f4-877e-4480-85da-7115ef486f5b" d="M144.42,112.46c0,1.96-1.59,3.54-3.54,3.54-5.79,0-10.94-2.79-14.17-7.1-2.74,3.64-6.85,6.2-11.55,6.9.99-.78,1.63-1.99,1.63-3.34,0-1.61-.9-3.02-2.23-3.74,4.9-.95,8.61-5.26,8.61-10.43,0-5.86-4.77-10.63-10.63-10.63-1.96,0-3.54-1.59-3.54-3.54s1.59-3.54,3.54-3.54c5.79,0,10.94,2.79,14.17,7.1,3.23-4.31,8.38-7.1,14.17-7.1,1.96,0,3.54,1.59,3.54,3.54s-1.59,3.54-3.54,3.54c-5.86,0-10.63,4.77-10.63,10.63s4.77,10.63,10.63,10.63c1.96,0,3.54,1.59,3.54,3.54Z"/>
  <path class="uuid-8f87e4f4-877e-4480-85da-7115ef486f5b" d="M28.53,105.28c0,5.91-4.81,10.72-10.72,10.72H7.27c-2.06,0-3.73-1.67-3.73-3.73s1.67-3.73,3.73-3.73h10.54c1.8,0,3.26-1.46,3.26-3.26s-1.46-3.26-3.26-3.26c-.06,0-2.86,0-3.54,0-.97,0-3.46,0-3.54,0-5.71-.23-10.72-4.95-10.72-10.72s4.81-10.72,10.72-10.72h10.54c2.06,0,3.73,1.67,3.73,3.73s-1.67,3.73-3.73,3.73h-10.54c-1.8,0-3.26,1.46-3.26,3.26s1.56,3.15,3.26,3.26c.04,0,2.56,0,3.54,0,.72,0,3.51,0,3.54,0,5.91,0,10.72,4.81,10.72,10.72Z"/>
  <g>
    <g>
      <path class="uuid-01c0c19a-bf62-4eec-b9e0-40ae96196a6a" d="M61.48,48.13c-1.5,0-3.03-.15-4.54-.44-.14-.03-.29-.06-.45-.09-11.04-2.33-19.08-12.23-19.08-23.54C37.41,10.8,48.21,0,61.48,0h21.24c1.56,0,2.83,1.27,2.83,2.83s-1.27,2.83-2.83,2.83h-21.24c-10.15,0-18.4,8.26-18.4,18.4s8.26,18.4,18.4,18.4h14.16c1.56,0,2.83,1.27,2.83,2.83s-1.27,2.83-2.83,2.83h-14.16Z"/>
      <path class="uuid-01c0c19a-bf62-4eec-b9e0-40ae96196a6a" d="M61.11,69.44c2.07-1.39,3.68-3.41,4.56-5.77l9.97-.03c10.11,0,18.33-8.22,18.33-18.33s-8.22-18.33-18.33-18.33h-14.16c-1.6,0-2.9-1.3-2.9-2.9s1.3-2.9,2.9-2.9h14.16c13.31,0,24.14,10.83,24.14,24.14s-10.83,24.14-24.14,24.14h-14.53Z"/>
      <path class="uuid-01c0c19a-bf62-4eec-b9e0-40ae96196a6a" d="M54.4,69.37c-5.46,0-9.91-4.45-9.91-9.91s4.45-9.91,9.91-9.91,9.91,4.45,9.91,9.91-4.45,9.91-9.91,9.91ZM54.4,55.21c-2.34,0-4.25,1.91-4.25,4.25s1.91,4.25,4.25,4.25,4.25-1.91,4.25-4.25-1.91-4.25-4.25-4.25Z"/>
    </g>
    <path class="uuid-01c0c19a-bf62-4eec-b9e0-40ae96196a6a" d="M46.98,115.15c-9.3,0-16.87-7.57-16.87-16.87s7.57-16.87,16.87-16.87,16.87,7.57,16.87,16.87-7.57,16.87-16.87,16.87ZM46.98,86.81c-6.33,0-11.48,5.15-11.48,11.48s5.15,11.48,11.48,11.48,11.48-5.15,11.48-11.48-5.15-11.48-11.48-11.48Z"/>
    <path class="uuid-01c0c19a-bf62-4eec-b9e0-40ae96196a6a" d="M84.19,115.15c-9.3,0-16.87-7.57-16.87-16.87v-21.26c0-1.48,1.21-2.69,2.69-2.69s2.69,1.21,2.69,2.69v21.26c0,6.33,5.15,11.48,11.48,11.48,4.13,0,7.92-2.27,9.94-5.76.6,1.94,1.51,3.78,2.7,5.44-3.21,3.64-7.78,5.71-12.64,5.71Z"/>
    <path class="uuid-01c0c19a-bf62-4eec-b9e0-40ae96196a6a" d="M140.88,115.15c-5.35,0-10.27-2.46-13.49-6.76l-.68-.91-.68.91c-2.23,2.97-5.31,5.09-8.81,6.09.27-.63.42-1.32.42-2.03,0-1.26-.46-2.44-1.26-3.36,4.51-1.6,7.64-5.91,7.64-10.82,0-6.33-5.15-11.48-11.48-11.48-1.48,0-2.69-1.21-2.69-2.69s1.21-2.69,2.69-2.69c5.35,0,10.27,2.46,13.49,6.76l.68.91.68-.91c3.23-4.3,8.14-6.76,13.49-6.76,1.49,0,2.69,1.21,2.69,2.69s-1.21,2.69-2.69,2.69c-6.33,0-11.48,5.15-11.48,11.48s5.15,11.48,11.48,11.48c1.49,0,2.69,1.21,2.69,2.69s-1.21,2.69-2.69,2.69Z"/>
    <g>
      <circle class="uuid-01c0c19a-bf62-4eec-b9e0-40ae96196a6a" cx="102.51" cy="88.26" r="2.83"/>
      <path class="uuid-01c0c19a-bf62-4eec-b9e0-40ae96196a6a" d="M112.53,115.29c1.56,0,2.83-1.27,2.83-2.83s-1.27-2.83-2.83-2.83c-6.25,0-11.34-5.09-11.34-11.34,0-1.56-1.27-2.83-2.83-2.83s-2.83,1.27-2.83,2.83c0,9.38,7.63,17.01,17.01,17.01Z"/>
    </g>
    <g>
      <path class="uuid-01c0c19a-bf62-4eec-b9e0-40ae96196a6a" d="M104.56,131.59c-.78,0-1.42-.63-1.42-1.42v-7.09c0-2.74,2.23-4.96,4.96-4.96s4.96,2.23,4.96,4.96c0,.78-.63,1.42-1.42,1.42s-1.42-.63-1.42-1.42c0-1.17-.95-2.13-2.13-2.13s-2.13.95-2.13,2.13v7.09c0,.78-.63,1.42-1.42,1.42Z"/>
      <path class="uuid-01c0c19a-bf62-4eec-b9e0-40ae96196a6a" d="M139.99,131.59h-2.66c-.78,0-1.42-.63-1.42-1.42s.63-1.42,1.42-1.42h2.66c.68,0,1.24-.56,1.24-1.24s-.56-1.24-1.24-1.24c-2.25,0-4.07-1.83-4.07-4.07s1.83-4.07,4.07-4.07h2.66c.78,0,1.42.63,1.42,1.42s-.63,1.42-1.42,1.42h-2.66c-.68,0-1.24.56-1.24,1.24s.56,1.24,1.24,1.24c2.25,0,4.07,1.83,4.07,4.07s-1.83,4.07-4.07,4.07Z"/>
      <path class="uuid-01c0c19a-bf62-4eec-b9e0-40ae96196a6a" d="M130.25,131.59h-2.66c-.78,0-1.42-.63-1.42-1.42s.63-1.42,1.42-1.42h2.66c.68,0,1.24-.56,1.24-1.24s-.56-1.24-1.24-1.24c-2.25,0-4.07-1.83-4.07-4.07s1.83-4.07,4.07-4.07h2.66c.78,0,1.42.63,1.42,1.42s-.63,1.42-1.42,1.42h-2.66c-.68,0-1.24.56-1.24,1.24s.56,1.24,1.24,1.24c2.25,0,4.07,1.83,4.07,4.07s-1.83,4.07-4.07,4.07Z"/>
      <path class="uuid-01c0c19a-bf62-4eec-b9e0-40ae96196a6a" d="M123.16,131.59h-3.54c-2.74,0-4.96-2.23-4.96-4.96v-3.54c0-2.74,2.23-4.96,4.96-4.96s4.96,2.23,4.96,4.96-2.23,4.96-4.96,4.96c-.78,0-1.42-.63-1.42-1.42s.63-1.42,1.42-1.42c1.17,0,2.13-.95,2.13-2.13s-.95-2.13-2.13-2.13-2.13.95-2.13,2.13v3.54c0,1.17.95,2.13,2.13,2.13h3.54c.78,0,1.42.63,1.42,1.42s-.63,1.42-1.42,1.42Z"/>
      <path class="uuid-01c0c19a-bf62-4eec-b9e0-40ae96196a6a" d="M93.05,135.14c-.78,0-1.42-.63-1.42-1.42v-10.63c0-2.74,2.23-4.96,4.96-4.96s4.96,2.23,4.96,4.96-2.23,4.96-4.96,4.96c-.78,0-1.42-.63-1.42-1.42s.63-1.42,1.42-1.42c1.17,0,2.13-.95,2.13-2.13s-.95-2.13-2.13-2.13-2.13.95-2.13,2.13v10.63c0,.78-.63,1.42-1.42,1.42Z"/>
    </g>
    <g>
      <g>
        <path class="uuid-01c0c19a-bf62-4eec-b9e0-40ae96196a6a" d="M150.26,83.05c-.2,0-.35-.16-.35-.35v-4.25c0-.2.16-.35.35-.35s.35.16.35.35v4.25c0,.2-.16.35-.35.35Z"/>
        <path class="uuid-01c0c19a-bf62-4eec-b9e0-40ae96196a6a" d="M152.74,83.05c-.08,0-.16-.03-.23-.09l-2.48-2.13c-.11-.1-.15-.25-.1-.39.05-.14.18-.23.33-.23h1.42c.3,0,.61-.36.61-.71s-.32-.71-.61-.71h-1.42c-.2,0-.35-.16-.35-.35s.16-.35.35-.35h1.42c.69,0,1.32.68,1.32,1.42s-.63,1.42-1.32,1.42h-.47l1.75,1.5c.15.13.17.35.04.5-.07.08-.17.12-.27.12Z"/>
      </g>
      <path class="uuid-01c0c19a-bf62-4eec-b9e0-40ae96196a6a" d="M151.5,84.47c-2.15,0-3.9-1.75-3.9-3.9s1.75-3.9,3.9-3.9,3.9,1.75,3.9,3.9-1.75,3.9-3.9,3.9ZM151.5,77.38c-1.76,0-3.19,1.43-3.19,3.19s1.43,3.19,3.19,3.19,3.19-1.43,3.19-3.19-1.43-3.19-3.19-3.19Z"/>
    </g>
    <path class="uuid-01c0c19a-bf62-4eec-b9e0-40ae96196a6a" d="M7.27,115.15c-1.59,0-2.88-1.29-2.88-2.88s1.29-2.88,2.88-2.88h10.54c2.27,0,4.11-1.85,4.11-4.11s-1.85-4.12-4.11-4.12c0,0-7,0-7.06,0-5.36-.21-9.9-4.73-9.9-9.87,0-5.44,4.43-9.87,9.87-9.87h10.54c1.59,0,2.88,1.29,2.88,2.88s-1.29,2.88-2.88,2.88h-10.54c-2.27,0-4.12,1.85-4.12,4.11,0,2.12,1.82,3.97,4.06,4.11.01,0,7.08,0,7.08,0,5.5,0,9.93,4.43,9.93,9.87s-4.43,9.87-9.87,9.87H7.27Z"/>
  </g>
</svg>