<?xml version="1.0" encoding="UTF-8"?>
<svg id="uuid-a7fa13ce-f335-4769-bc60-dbbc7c072ce9" data-name="Layer 1" xmlns="http://www.w3.org/2000/svg" viewBox="0 0 383.36 180">
  <defs>
    <style>
      .uuid-e7e90796-6cdf-410e-877a-53057420e69d {
        fill: #ed0c6e;
      }

      .uuid-583e1355-3d2b-4771-93a4-758adc0ce6db {
        fill: #fff;
      }

      .uuid-01b96102-6eb2-4a55-b06f-ddef90b3daac {
        fill: #00b7ce;
      }

      .uuid-769860cb-d638-48b9-b7b6-a3594733d1f3 {
        fill: #d7df23;
      }

      .uuid-54dbd0ae-0648-4dcc-b920-8ffd652d83b6 {
        fill: #f7941d;
      }
    </style>
  </defs>
  <path class="uuid-769860cb-d638-48b9-b7b6-a3594733d1f3" d="M166.54,141.73c-19.54,0-35.43-15.9-35.43-35.43s15.9-35.43,35.43-35.43,35.43,15.9,35.43,35.43-15.9,35.43-35.43,35.43ZM166.54,85.04c-11.72,0-21.26,9.54-21.26,21.26s9.54,21.26,21.26,21.26,21.26-9.54,21.26-21.26-9.54-21.26-21.26-21.26Z"/>
  <path class="uuid-583e1355-3d2b-4771-93a4-758adc0ce6db" d="M77.95,99.21h-28.35C22.25,99.21,0,76.96,0,49.61S22.25,0,49.61,0h42.52c3.91,0,7.09,3.17,7.09,7.09s-3.17,7.09-7.09,7.09h-42.52c-19.54,0-35.43,15.9-35.43,35.43s15.9,35.43,35.43,35.43h28.35c3.91,0,7.09,3.17,7.09,7.09s-3.17,7.09-7.09,7.09Z"/>
  <path class="uuid-e7e90796-6cdf-410e-877a-53057420e69d" d="M35.43,100.63c-10.94,0-19.84,8.9-19.84,19.84s8.9,19.84,19.84,19.84,19.84-8.9,19.84-19.84-8.9-19.84-19.84-19.84ZM35.43,128.98c-4.69,0-8.5-3.81-8.5-8.5s3.81-8.5,8.5-8.5,8.5,3.81,8.5,8.5-3.81,8.5-8.5,8.5Z"/>
  <path class="uuid-583e1355-3d2b-4771-93a4-758adc0ce6db" d="M77.95,42.38h-28.35c-3.99,0-7.23,3.24-7.23,7.23s3.24,7.23,7.23,7.23h28.35c19.46,0,35.29,15.83,35.29,35.29s-15.83,35.29-35.29,35.29h-20.93c-2.18,6.75-7.43,12.12-14.1,14.46h35.03c27.43,0,49.75-22.32,49.75-49.75s-22.32-49.75-49.75-49.75Z"/>
  <path class="uuid-54dbd0ae-0648-4dcc-b920-8ffd652d83b6" d="M261.3,112.4c-2.63,8.76-10.76,15.16-20.36,15.16-11.72,0-21.26-9.54-21.26-21.26v-42.52c0-3.91-3.17-7.09-7.09-7.09s-7.09,3.17-7.09,7.09v42.52c0,19.54,15.9,35.43,35.43,35.43,11.06,0,20.94-5.09,27.45-13.05-3.59-4.67-6.08-10.23-7.09-16.28Z"/>
  <path class="uuid-01b96102-6eb2-4a55-b06f-ddef90b3daac" d="M354.33,127.56c-11.72,0-21.26-9.54-21.26-21.26s9.54-21.26,21.26-21.26c3.91,0,7.09-3.17,7.09-7.09s-3.17-7.09-7.09-7.09c-11.58,0-21.88,5.58-28.35,14.2-6.47-8.61-16.77-14.2-28.35-14.2-3.91,0-7.09,3.17-7.09,7.09s3.17,7.09,7.09,7.09c11.72,0,21.26,9.54,21.26,21.26,0,10.34-7.43,18.97-17.22,20.86,2.66,1.44,4.47,4.25,4.47,7.48,0,2.71-1.28,5.13-3.26,6.68,9.41-1.4,17.63-6.51,23.11-13.8,6.47,8.61,16.77,14.2,28.35,14.2,3.91,0,7.09-3.17,7.09-7.09s-3.17-7.09-7.09-7.09Z"/>
  <g>
    <circle class="uuid-e7e90796-6cdf-410e-877a-53057420e69d" cx="277.59" cy="86.25" r="5.67"/>
    <path class="uuid-e7e90796-6cdf-410e-877a-53057420e69d" d="M297.64,140.31c3.13,0,5.67-2.54,5.67-5.67s-2.54-5.67-5.67-5.67c-12.5,0-22.68-10.17-22.68-22.68,0-3.13-2.54-5.67-5.67-5.67s-5.67,2.54-5.67,5.67c0,18.76,15.26,34.02,34.02,34.02Z"/>
  </g>
  <path class="uuid-e7e90796-6cdf-410e-877a-53057420e69d" d="M281.69,172.91c-1.57,0-2.83-1.27-2.83-2.83v-14.17c0-5.47,4.45-9.92,9.92-9.92s9.92,4.45,9.92,9.92c0,1.57-1.27,2.83-2.83,2.83s-2.83-1.27-2.83-2.83c0-2.34-1.91-4.25-4.25-4.25s-4.25,1.91-4.25,4.25v14.17c0,1.57-1.27,2.83-2.83,2.83Z"/>
  <path class="uuid-e7e90796-6cdf-410e-877a-53057420e69d" d="M352.56,172.91h-5.31c-1.57,0-2.83-1.27-2.83-2.83s1.27-2.83,2.83-2.83h5.31c1.37,0,2.48-1.11,2.48-2.48s-1.11-2.48-2.48-2.48c-4.49,0-8.15-3.66-8.15-8.15s3.66-8.15,8.15-8.15h5.31c1.57,0,2.83,1.27,2.83,2.83s-1.27,2.83-2.83,2.83h-5.31c-1.37,0-2.48,1.11-2.48,2.48s1.11,2.48,2.48,2.48c4.49,0,8.15,3.66,8.15,8.15s-3.66,8.15-8.15,8.15Z"/>
  <path class="uuid-e7e90796-6cdf-410e-877a-53057420e69d" d="M333.07,172.91h-5.32c-1.57,0-2.83-1.27-2.83-2.83s1.27-2.83,2.83-2.83h5.32c1.37,0,2.48-1.11,2.48-2.48s-1.11-2.48-2.48-2.48c-4.49,0-8.15-3.66-8.15-8.15s3.66-8.15,8.15-8.15h5.31c1.57,0,2.83,1.27,2.83,2.83s-1.27,2.83-2.83,2.83h-5.31c-1.37,0-2.48,1.11-2.48,2.48s1.11,2.48,2.48,2.48c4.49,0,8.15,3.66,8.15,8.15s-3.66,8.15-8.15,8.15Z"/>
  <path class="uuid-e7e90796-6cdf-410e-877a-53057420e69d" d="M318.9,172.91h-7.09c-5.47,0-9.92-4.45-9.92-9.92v-7.09c0-5.47,4.45-9.92,9.92-9.92s9.92,4.45,9.92,9.92-4.45,9.92-9.92,9.92c-1.57,0-2.83-1.27-2.83-2.83s1.27-2.83,2.83-2.83c2.34,0,4.25-1.91,4.25-4.25s-1.91-4.25-4.25-4.25-4.25,1.91-4.25,4.25v7.09c0,2.34,1.91,4.25,4.25,4.25h7.09c1.57,0,2.83,1.27,2.83,2.83s-1.27,2.83-2.83,2.83Z"/>
  <path class="uuid-e7e90796-6cdf-410e-877a-53057420e69d" d="M258.66,180c-1.57,0-2.83-1.27-2.83-2.83v-21.26c0-5.47,4.45-9.92,9.92-9.92s9.92,4.45,9.92,9.92-4.45,9.92-9.92,9.92c-1.57,0-2.83-1.27-2.83-2.83s1.27-2.83,2.83-2.83c2.34,0,4.25-1.91,4.25-4.25s-1.91-4.25-4.25-4.25-4.25,1.91-4.25,4.25v21.26c0,1.57-1.27,2.83-2.83,2.83Z"/>
  <g>
    <g>
      <path class="uuid-583e1355-3d2b-4771-93a4-758adc0ce6db" d="M373.09,75.83c-.39,0-.71-.32-.71-.71v-8.5c0-.39.32-.71.71-.71s.71.32.71.71v8.5c0,.39-.32.71-.71.71Z"/>
      <path class="uuid-583e1355-3d2b-4771-93a4-758adc0ce6db" d="M378.05,75.83c-.16,0-.33-.06-.46-.17l-4.96-4.25c-.23-.19-.31-.51-.2-.78.1-.28.37-.46.66-.46h2.85c.6,0,1.23-.73,1.23-1.42s-.63-1.42-1.23-1.42h-2.85c-.39,0-.71-.32-.71-.71s.32-.71.71-.71h2.85c1.38,0,2.64,1.35,2.64,2.83s-1.26,2.83-2.64,2.83h-.93l3.51,3.01c.3.25.33.7.08,1-.14.16-.34.25-.54.25Z"/>
    </g>
    <path class="uuid-583e1355-3d2b-4771-93a4-758adc0ce6db" d="M375.57,78.66c-4.3,0-7.79-3.5-7.79-7.79s3.5-7.79,7.79-7.79,7.79,3.5,7.79,7.79-3.5,7.79-7.79,7.79ZM375.57,64.49c-3.52,0-6.38,2.86-6.38,6.38s2.86,6.38,6.38,6.38,6.38-2.86,6.38-6.38-2.86-6.38-6.38-6.38Z"/>
  </g>
</svg>