<?xml version="1.0" encoding="UTF-8"?>
<svg id="uuid-22385515-3b03-47b8-94ea-1dd5a95d32cb" data-name="Layer 1" xmlns="http://www.w3.org/2000/svg" viewBox="0 0 395 185">
  <defs>
    <style>
      .uuid-e1987c35-c9d5-43d7-8aad-161895f7eee2 {
        fill: #ed0c6e;
      }

      .uuid-d74094db-dcb3-4071-92dd-0d9f0a5d373a {
        fill: #004282;
      }

      .uuid-1e2575b3-5e77-469e-bb5d-35fd549ad1cd {
        fill: #00b7ce;
      }

      .uuid-aea20f04-68dd-4e2b-a03d-dc7b81c73369 {
        fill: #d7df23;
      }

      .uuid-e159516b-9e20-41c3-a896-0a6ad0bbc1bd {
        fill: #f7941d;
      }
    </style>
  </defs>
  <path class="uuid-aea20f04-68dd-4e2b-a03d-dc7b81c73369" d="M172.35,144.23c-19.54,0-35.43-15.9-35.43-35.43s15.9-35.43,35.43-35.43,35.43,15.9,35.43,35.43-15.9,35.43-35.43,35.43ZM172.35,87.54c-11.72,0-21.26,9.54-21.26,21.26s9.54,21.26,21.26,21.26,21.26-9.54,21.26-21.26-9.54-21.26-21.26-21.26Z"/>
  <path class="uuid-d74094db-dcb3-4071-92dd-0d9f0a5d373a" d="M83.77,101.71h-28.35c-27.35,0-49.61-22.25-49.61-49.61S28.07,2.5,55.42,2.5h42.52c3.91,0,7.09,3.17,7.09,7.09s-3.17,7.09-7.09,7.09h-42.52c-19.54,0-35.43,15.9-35.43,35.43s15.9,35.43,35.43,35.43h28.35c3.91,0,7.09,3.17,7.09,7.09s-3.17,7.09-7.09,7.09Z"/>
  <path class="uuid-e1987c35-c9d5-43d7-8aad-161895f7eee2" d="M41.25,103.13c-10.94,0-19.84,8.9-19.84,19.84s8.9,19.84,19.84,19.84,19.84-8.9,19.84-19.84-8.9-19.84-19.84-19.84ZM41.25,131.48c-4.69,0-8.5-3.81-8.5-8.5s3.81-8.5,8.5-8.5,8.5,3.81,8.5,8.5-3.81,8.5-8.5,8.5Z"/>
  <path class="uuid-d74094db-dcb3-4071-92dd-0d9f0a5d373a" d="M83.77,44.88h-28.35c-3.99,0-7.23,3.24-7.23,7.23s3.24,7.23,7.23,7.23h28.35c19.46,0,35.29,15.83,35.29,35.29s-15.83,35.29-35.29,35.29h-20.93c-2.18,6.75-7.43,12.12-14.1,14.46h35.03c27.43,0,49.75-22.32,49.75-49.75s-22.32-49.75-49.75-49.75Z"/>
  <path class="uuid-e159516b-9e20-41c3-a896-0a6ad0bbc1bd" d="M267.12,114.9c-2.63,8.76-10.76,15.16-20.36,15.16-11.72,0-21.26-9.54-21.26-21.26v-42.52c0-3.91-3.17-7.09-7.09-7.09s-7.09,3.17-7.09,7.09v42.52c0,19.54,15.9,35.43,35.43,35.43,11.06,0,20.94-5.09,27.45-13.05-3.59-4.67-6.08-10.23-7.09-16.28Z"/>
  <path class="uuid-1e2575b3-5e77-469e-bb5d-35fd549ad1cd" d="M360.15,130.06c-11.72,0-21.26-9.54-21.26-21.26s9.54-21.26,21.26-21.26c3.91,0,7.09-3.17,7.09-7.09s-3.17-7.09-7.09-7.09c-11.58,0-21.88,5.58-28.35,14.2-6.47-8.61-16.77-14.2-28.35-14.2-3.91,0-7.09,3.17-7.09,7.09s3.17,7.09,7.09,7.09c11.72,0,21.26,9.54,21.26,21.26,0,10.34-7.43,18.97-17.22,20.86,2.66,1.44,4.47,4.25,4.47,7.48,0,2.71-1.28,5.13-3.26,6.68,9.41-1.4,17.63-6.51,23.11-13.8,6.47,8.61,16.77,14.2,28.35,14.2,3.91,0,7.09-3.17,7.09-7.09s-3.17-7.09-7.09-7.09Z"/>
  <g>
    <circle class="uuid-e1987c35-c9d5-43d7-8aad-161895f7eee2" cx="283.4" cy="88.75" r="5.67"/>
    <path class="uuid-e1987c35-c9d5-43d7-8aad-161895f7eee2" d="M303.46,142.81c3.13,0,5.67-2.54,5.67-5.67s-2.54-5.67-5.67-5.67c-12.5,0-22.68-10.17-22.68-22.68,0-3.13-2.54-5.67-5.67-5.67s-5.67,2.54-5.67,5.67c0,18.76,15.26,34.02,34.02,34.02Z"/>
  </g>
  <path class="uuid-e1987c35-c9d5-43d7-8aad-161895f7eee2" d="M287.51,175.41c-1.57,0-2.83-1.27-2.83-2.83v-14.17c0-5.47,4.45-9.92,9.92-9.92s9.92,4.45,9.92,9.92c0,1.57-1.27,2.83-2.83,2.83s-2.83-1.27-2.83-2.83c0-2.34-1.91-4.25-4.25-4.25s-4.25,1.91-4.25,4.25v14.17c0,1.57-1.27,2.83-2.83,2.83Z"/>
  <path class="uuid-e1987c35-c9d5-43d7-8aad-161895f7eee2" d="M358.38,175.41h-5.31c-1.57,0-2.83-1.27-2.83-2.83s1.27-2.83,2.83-2.83h5.31c1.37,0,2.48-1.11,2.48-2.48s-1.11-2.48-2.48-2.48c-4.49,0-8.15-3.66-8.15-8.15s3.66-8.15,8.15-8.15h5.31c1.57,0,2.83,1.27,2.83,2.83s-1.27,2.83-2.83,2.83h-5.31c-1.37,0-2.48,1.11-2.48,2.48s1.11,2.48,2.48,2.48c4.49,0,8.15,3.66,8.15,8.15s-3.66,8.15-8.15,8.15Z"/>
  <path class="uuid-e1987c35-c9d5-43d7-8aad-161895f7eee2" d="M338.89,175.41h-5.32c-1.57,0-2.83-1.27-2.83-2.83s1.27-2.83,2.83-2.83h5.32c1.37,0,2.48-1.11,2.48-2.48s-1.11-2.48-2.48-2.48c-4.49,0-8.15-3.66-8.15-8.15s3.66-8.15,8.15-8.15h5.31c1.57,0,2.83,1.27,2.83,2.83s-1.27,2.83-2.83,2.83h-5.31c-1.37,0-2.48,1.11-2.48,2.48s1.11,2.48,2.48,2.48c4.49,0,8.15,3.66,8.15,8.15s-3.66,8.15-8.15,8.15Z"/>
  <path class="uuid-e1987c35-c9d5-43d7-8aad-161895f7eee2" d="M324.72,175.41h-7.09c-5.47,0-9.92-4.45-9.92-9.92v-7.09c0-5.47,4.45-9.92,9.92-9.92s9.92,4.45,9.92,9.92-4.45,9.92-9.92,9.92c-1.57,0-2.83-1.27-2.83-2.83s1.27-2.83,2.83-2.83c2.34,0,4.25-1.91,4.25-4.25s-1.91-4.25-4.25-4.25-4.25,1.91-4.25,4.25v7.09c0,2.34,1.91,4.25,4.25,4.25h7.09c1.57,0,2.83,1.27,2.83,2.83s-1.27,2.83-2.83,2.83Z"/>
  <path class="uuid-e1987c35-c9d5-43d7-8aad-161895f7eee2" d="M264.48,182.5c-1.57,0-2.83-1.27-2.83-2.83v-21.26c0-5.47,4.45-9.92,9.92-9.92s9.92,4.45,9.92,9.92-4.45,9.92-9.92,9.92c-1.57,0-2.83-1.27-2.83-2.83s1.27-2.83,2.83-2.83c2.34,0,4.25-1.91,4.25-4.25s-1.91-4.25-4.25-4.25-4.25,1.91-4.25,4.25v21.26c0,1.57-1.27,2.83-2.83,2.83Z"/>
  <g>
    <g>
      <path class="uuid-d74094db-dcb3-4071-92dd-0d9f0a5d373a" d="M378.91,78.33c-.39,0-.71-.32-.71-.71v-8.5c0-.39.32-.71.71-.71s.71.32.71.71v8.5c0,.39-.32.71-.71.71Z"/>
      <path class="uuid-d74094db-dcb3-4071-92dd-0d9f0a5d373a" d="M383.87,78.33c-.16,0-.33-.06-.46-.17l-4.96-4.25c-.23-.19-.31-.51-.2-.78.1-.28.37-.46.66-.46h2.85c.6,0,1.23-.73,1.23-1.42s-.63-1.42-1.23-1.42h-2.85c-.39,0-.71-.32-.71-.71s.32-.71.71-.71h2.85c1.38,0,2.64,1.35,2.64,2.83s-1.26,2.83-2.64,2.83h-.93l3.51,3.01c.3.25.33.7.08,1-.14.16-.34.25-.54.25Z"/>
    </g>
    <path class="uuid-d74094db-dcb3-4071-92dd-0d9f0a5d373a" d="M381.39,81.16c-4.3,0-7.79-3.5-7.79-7.79s3.5-7.79,7.79-7.79,7.79,3.5,7.79,7.79-3.5,7.79-7.79,7.79ZM381.39,66.99c-3.52,0-6.38,2.86-6.38,6.38s2.86,6.38,6.38,6.38,6.38-2.86,6.38-6.38-2.86-6.38-6.38-6.38Z"/>
  </g>
</svg>