<?xml version="1.0" encoding="UTF-8"?>
<svg id="uuid-2a9d2c4a-ba2d-4bee-85ed-04825d0597fa" data-name="Layer 1" xmlns="http://www.w3.org/2000/svg" viewBox="0 0 94.72 94.69">
  <defs>
    <style>
      .uuid-2d262bf0-507f-4553-9e62-51903b5e7665 {
        fill: #fff;
      }
    </style>
  </defs>
  <path class="uuid-2d262bf0-507f-4553-9e62-51903b5e7665" d="M32.67,65.34c-2.04,0-4.12-.2-6.16-.59-.19-.04-.4-.08-.61-.12C10.91,61.48,0,48.03,0,32.67,0,14.66,14.66,0,32.67,0h28.83c2.12,0,3.84,1.72,3.84,3.84s-1.72,3.84-3.84,3.84h-28.83c-13.78,0-24.98,11.21-24.98,24.98s11.21,24.99,24.98,24.99h19.22c2.12,0,3.84,1.72,3.84,3.84s-1.72,3.84-3.84,3.84h-19.22Z"/>
  <path class="uuid-2d262bf0-507f-4553-9e62-51903b5e7665" d="M32.17,94.27c2.8-1.89,5-4.64,6.2-7.83l13.53-.05c13.72,0,24.88-11.16,24.88-24.89s-11.16-24.89-24.89-24.89h-19.22c-2.17,0-3.94-1.77-3.94-3.94s1.77-3.94,3.94-3.94h19.22c18.07,0,32.77,14.7,32.77,32.77s-14.7,32.77-32.77,32.77h-19.72Z"/>
  <path class="uuid-2d262bf0-507f-4553-9e62-51903b5e7665" d="M23.06,94.17c-7.42,0-13.45-6.04-13.45-13.45s6.04-13.45,13.45-13.45,13.45,6.04,13.45,13.45-6.04,13.45-13.45,13.45ZM23.06,74.95c-3.18,0-5.77,2.59-5.77,5.77s2.59,5.77,5.77,5.77,5.77-2.59,5.77-5.77-2.59-5.77-5.77-5.77Z"/>
  <g>
    <path class="uuid-2d262bf0-507f-4553-9e62-51903b5e7665" d="M88.94,89.88h.79c.91,0,1.74-.89,1.74-1.87,0-.88-.74-1.87-1.74-1.87h-1.94c-.24,0-.42.19-.42.43v5.78c0,.23.19.43.42.43s.42-.19.42-.43v-1.97l2.67,2.29c.08.07.18.1.28.1.12,0,.24-.05.32-.15.15-.18.13-.45-.05-.6l-2.5-2.14ZM88.22,86.98h1.51c.43,0,.89.52.89,1.02s-.46,1.02-.89,1.02h-1.51v-2.04Z"/>
    <path class="uuid-2d262bf0-507f-4553-9e62-51903b5e7665" d="M89.48,84.21c-2.89,0-5.24,2.35-5.24,5.24s2.35,5.24,5.24,5.24,5.24-2.35,5.24-5.24-2.35-5.24-5.24-5.24ZM89.48,93.84c-2.42,0-4.39-1.97-4.39-4.39s1.97-4.39,4.39-4.39,4.39,1.97,4.39,4.39-1.97,4.39-4.39,4.39Z"/>
  </g>
</svg>