<?xml version="1.0" encoding="UTF-8"?>
<svg id="uuid-05026290-97f1-4a7b-beb1-38184a06fee3" xmlns="http://www.w3.org/2000/svg" version="1.1" viewBox="0 0 100 100">
  <!-- Generator: Adobe Illustrator 29.5.1, SVG Export Plug-In . SVG Version: 2.1.0 Build 141)  -->
  <defs>
    <style>
      .st0 {
        fill: #ed0c6e;
      }

      .st1 {
        stroke-width: .85px;
      }

      .st1, .st2 {
        fill: none;
        stroke: #fff;
        stroke-linecap: round;
        stroke-linejoin: round;
      }

      .st2 {
        stroke-width: .85px;
      }

      .st3 {
        fill: #fff;
      }
    </style>
  </defs>
  <path class="st3" d="M35.31,67.99c-2.04,0-4.12-.2-6.16-.59-.19-.04-.4-.08-.61-.12-14.99-3.15-25.9-16.6-25.9-31.96C2.64,17.31,17.3,2.65,35.31,2.65h28.83c2.12,0,3.84,1.72,3.84,3.84s-1.72,3.84-3.84,3.84h-28.83c-13.78,0-24.98,11.21-24.98,24.98s11.21,24.99,24.98,24.99h19.22c2.12,0,3.84,1.72,3.84,3.84s-1.72,3.84-3.84,3.84h-19.22Z"/>
  <path class="st3" d="M34.81,96.92c2.8-1.89,5-4.64,6.2-7.83l13.53-.05c13.72,0,24.88-11.16,24.88-24.89s-11.16-24.89-24.89-24.89h-19.22c-2.17,0-3.94-1.77-3.94-3.94s1.77-3.94,3.94-3.94h19.22c18.07,0,32.77,14.7,32.77,32.77s-14.7,32.77-32.77,32.77c0,0-19.72,0-19.72,0Z"/>
  <path class="st0" d="M25.7,96.82c-7.42,0-13.45-6.04-13.45-13.45s6.04-13.45,13.45-13.45,13.45,6.04,13.45,13.45-6.04,13.45-13.45,13.45ZM25.7,77.6c-3.18,0-5.77,2.59-5.77,5.77s2.59,5.77,5.77,5.77,5.77-2.59,5.77-5.77-2.59-5.77-5.77-5.77Z"/>
  <g>
    <g>
      <line class="st2" x1="90.43" y1="89.21" x2="90.43" y2="94.99"/>
      <path class="st2" d="M90.43,89.21h1.94c.7,0,1.32.74,1.32,1.45s-.61,1.45-1.32,1.45h-1.94l3.37,2.89"/>
    </g>
    <circle class="st1" cx="92.12" cy="92.11" r="4.82"/>
  </g>
</svg>