<?xml version="1.0" encoding="UTF-8"?>
<svg id="uuid-92958b50-4bf1-49f4-8f1d-f68b2e99636a" data-name="Layer 1" xmlns="http://www.w3.org/2000/svg" viewBox="0 0 94.72 94.69">
  <defs>
    <style>
      .uuid-61344f43-42be-4aae-8386-435c6cdda112 {
        fill: none;
        stroke: #231f20;
        stroke-linecap: round;
        stroke-linejoin: round;
        stroke-width: .85px;
      }

      .uuid-d677d9bd-b4ee-497b-970f-c274b939520b {
        fill: #231f20;
      }
    </style>
  </defs>
  <path class="uuid-d677d9bd-b4ee-497b-970f-c274b939520b" d="M32.67,65.34c-2.04,0-4.12-.2-6.16-.59-.19-.04-.4-.08-.61-.12C10.91,61.48,0,48.03,0,32.67,0,14.66,14.66,0,32.67,0h28.83c2.12,0,3.84,1.72,3.84,3.84s-1.72,3.84-3.84,3.84h-28.83c-13.78,0-24.98,11.21-24.98,24.98s11.21,24.99,24.98,24.99h19.22c2.12,0,3.84,1.72,3.84,3.84s-1.72,3.84-3.84,3.84h-19.22Z"/>
  <path class="uuid-d677d9bd-b4ee-497b-970f-c274b939520b" d="M32.17,94.27c2.8-1.89,5-4.64,6.2-7.83l13.53-.05c13.72,0,24.88-11.16,24.88-24.89s-11.16-24.89-24.89-24.89h-19.22c-2.17,0-3.94-1.77-3.94-3.94s1.77-3.94,3.94-3.94h19.22c18.07,0,32.77,14.7,32.77,32.77s-14.7,32.77-32.77,32.77h-19.72Z"/>
  <path class="uuid-d677d9bd-b4ee-497b-970f-c274b939520b" d="M23.06,94.17c-7.42,0-13.45-6.04-13.45-13.45s6.04-13.45,13.45-13.45,13.45,6.04,13.45,13.45-6.04,13.45-13.45,13.45ZM23.06,74.95c-3.18,0-5.77,2.59-5.77,5.77s2.59,5.77,5.77,5.77,5.77-2.59,5.77-5.77-2.59-5.77-5.77-5.77Z"/>
  <g>
    <g>
      <line class="uuid-61344f43-42be-4aae-8386-435c6cdda112" x1="87.79" y1="86.56" x2="87.79" y2="92.34"/>
      <path class="uuid-61344f43-42be-4aae-8386-435c6cdda112" d="M87.79,86.56h1.94c.7,0,1.32.74,1.32,1.45s-.61,1.45-1.32,1.45h-1.94l3.37,2.89"/>
    </g>
    <circle class="uuid-61344f43-42be-4aae-8386-435c6cdda112" cx="89.48" cy="89.45" r="4.82" transform="translate(-5.12 5.44) rotate(-3.38)"/>
  </g>
</svg>